# xmcd CD database file
#
# Track frame offsets:
#	150
#	11058
#	20979
#	35202
#	45256
#	55326
#	69157
#	82213
#	90778
#	104053
#	113817
#	124608
#	136402
#	149230
#	160648
#
# Disc length: 2278 seconds
#
# Revision: 1
# Processed by: cddbd v1.5.2PL0 Copyright (c) Steve Scherf et al.
# Submitted via: CDex 2.17
#
DISCID=d208e40f
DTITLE=Barbara Mandrell - The 10 Commandments
DYEAR=2003
DGENRE=Country
TTITLE0=The Wayward Wind
TTITLE1=Do Right Woman, Do Right Man
TTITLE2=Almost Persuaded
TTITLE3=Kawliga
TTITLE4=Release Me
TTITLE5=Try To Remember
TTITLE6=Don't Touch Me
TTITLE7=I Gave My Love To A Railroad Man
TTITLE8=Lillie Grow High
TTITLE9=In The Name Of Love
TTITLE10=Break My Mind
TTITLE11=Give A Little, Take A Little
TTITLE12=The Ten Commandments Of Love
TTITLE13=We've Got Everything But Love
TTITLE14=This Time I Almost Made It
EXTD=YEAR: 2003
EXTT0=
EXTT1=
EXTT2=
EXTT3=
EXTT4=
EXTT5=
EXTT6=
EXTT7=
EXTT8=
EXTT9=
EXTT10=
EXTT11=
EXTT12=
EXTT13=
EXTT14=
PLAYORDER=
